<svg width="306" height="90" viewBox="0 0 306 90" fill="none" xmlns="http://www.w3.org/2000/svg">
<rect width="306" height="90" fill="#1E1E1E"/>
<g clip-path="url(#clip0_0_1)">
<path d="M306 0H0V90H306V0Z" fill="white"/>
<path d="M10 9H9V59H10V9Z" fill="black"/>
<path d="M14 9H13V59H14V9Z" fill="black"/>
<path d="M18 9H15V59H18V9Z" fill="black"/>
<path d="M22 9H19V59H22V9Z" fill="black"/>
<path d="M24 9H23V59H24V9Z" fill="black"/>
<path d="M28 9H25V59H28V9Z" fill="black"/>
<path d="M32 9H29V59H32V9Z" fill="black"/>
<path d="M34 9H33V59H34V9Z" fill="black"/>
<path d="M36 9H35V59H36V9Z" fill="black"/>
<path d="M40 9H39V59H40V9Z" fill="black"/>
<path d="M42 9H41V59H42V9Z" fill="black"/>
<path d="M46 9H43V59H46V9Z" fill="black"/>
<path d="M48 9H47V59H48V9Z" fill="black"/>
<path d="M52 9H49V59H52V9Z" fill="black"/>
<path d="M56 9H55V59H56V9Z" fill="black"/>
<path d="M58 9H57V59H58V9Z" fill="black"/>
<path d="M60 9H59V59H60V9Z" fill="black"/>
<path d="M64 9H61V59H64V9Z" fill="black"/>
<path d="M68 9H67V59H68V9Z" fill="black"/>
<path d="M72 9H69V59H72V9Z" fill="black"/>
<path d="M74 9H73V59H74V9Z" fill="black"/>
<path d="M80 9H77V59H80V9Z" fill="black"/>
<path d="M82 9H81V59H82V9Z" fill="black"/>
<path d="M84 9H83V59H84V9Z" fill="black"/>
<path d="M88 9H85V59H88V9Z" fill="black"/>
<path d="M90 9H89V59H90V9Z" fill="black"/>
<path d="M96 9H93V59H96V9Z" fill="black"/>
<path d="M98 9H97V59H98V9Z" fill="black"/>
<path d="M102 9H99V59H102V9Z" fill="black"/>
<path d="M104 9H103V59H104V9Z" fill="black"/>
<path d="M106 9H105V59H106V9Z" fill="black"/>
<path d="M110 9H107V59H110V9Z" fill="black"/>
<path d="M114 9H113V59H114V9Z" fill="black"/>
<path d="M116 9H115V59H116V9Z" fill="black"/>
<path d="M120 9H117V59H120V9Z" fill="black"/>
<path d="M122 9H121V59H122V9Z" fill="black"/>
<path d="M124 9H123V59H124V9Z" fill="black"/>
<path d="M130 9H127V59H130V9Z" fill="black"/>
<path d="M134 9H131V59H134V9Z" fill="black"/>
<path d="M136 9H135V59H136V9Z" fill="black"/>
<path d="M138 9H137V59H138V9Z" fill="black"/>
<path d="M142 9H139V59H142V9Z" fill="black"/>
<path d="M146 9H145V59H146V9Z" fill="black"/>
<path d="M148 9H147V59H148V9Z" fill="black"/>
<path d="M152 9H149V59H152V9Z" fill="black"/>
<path d="M154 9H153V59H154V9Z" fill="black"/>
<path d="M156 9H155V59H156V9Z" fill="black"/>
<path d="M162 9H159V59H162V9Z" fill="black"/>
<path d="M164 9H163V59H164V9Z" fill="black"/>
<path d="M168 9H165V59H168V9Z" fill="black"/>
<path d="M170 9H169V59H170V9Z" fill="black"/>
<path d="M176 9H173V59H176V9Z" fill="black"/>
<path d="M178 9H177V59H178V9Z" fill="black"/>
<path d="M182 9H179V59H182V9Z" fill="black"/>
<path d="M184 9H183V59H184V9Z" fill="black"/>
<path d="M186 9H185V59H186V9Z" fill="black"/>
<path d="M188 9H187V59H188V9Z" fill="black"/>
<path d="M192 9H189V59H192V9Z" fill="black"/>
<path d="M196 9H193V59H196V9Z" fill="black"/>
<path d="M200 9H199V59H200V9Z" fill="black"/>
<path d="M204 9H201V59H204V9Z" fill="black"/>
<path d="M206 9H205V59H206V9Z" fill="black"/>
<path d="M208 9H207V59H208V9Z" fill="black"/>
<path d="M214 9H211V59H214V9Z" fill="black"/>
<path d="M216 9H215V59H216V9Z" fill="black"/>
<path d="M220 9H217V59H220V9Z" fill="black"/>
<path d="M222 9H221V59H222V9Z" fill="black"/>
<path d="M226 9H223V59H226V9Z" fill="black"/>
<path d="M230 9H229V59H230V9Z" fill="black"/>
<path d="M232 9H231V59H232V9Z" fill="black"/>
<path d="M234 9H233V59H234V9Z" fill="black"/>
<path d="M238 9H235V59H238V9Z" fill="black"/>
<path d="M240 9H239V59H240V9Z" fill="black"/>
<path d="M244 9H241V59H244V9Z" fill="black"/>
<path d="M248 9H247V59H248V9Z" fill="black"/>
<path d="M250 9H249V59H250V9Z" fill="black"/>
<path d="M254 9H251V59H254V9Z" fill="black"/>
<path d="M256 9H255V59H256V9Z" fill="black"/>
<path d="M262 9H259V59H262V9Z" fill="black"/>
<path d="M264 9H263V59H264V9Z" fill="black"/>
<path d="M266 9H265V59H266V9Z" fill="black"/>
<path d="M270 9H267V59H270V9Z" fill="black"/>
<path d="M272 9H271V59H272V9Z" fill="black"/>
<path d="M276 9H273V59H276V9Z" fill="black"/>
<path d="M280 9H279V59H280V9Z" fill="black"/>
<path d="M282 9H281V59H282V9Z" fill="black"/>
<path d="M286 9H285V59H286V9Z" fill="black"/>
<path d="M290 9H287V59H290V9Z" fill="black"/>
<path d="M294 9H291V59H294V9Z" fill="black"/>
<path d="M296 9H295V59H296V9Z" fill="black"/>
<path d="M97.467 72.2727H98.7283L101.694 79.517H101.797L104.762 72.2727H106.024V81H105.035V74.3693H104.95L102.223 81H101.268L98.5408 74.3693H98.4556V81H97.467V72.2727ZM112.915 74.4545C112.864 74.0227 112.657 73.6875 112.293 73.4489C111.93 73.2102 111.484 73.0909 110.955 73.0909C110.569 73.0909 110.231 73.1534 109.941 73.2784C109.654 73.4034 109.43 73.5753 109.268 73.794C109.109 74.0128 109.029 74.2614 109.029 74.5398C109.029 74.7727 109.085 74.973 109.195 75.1406C109.309 75.3054 109.454 75.4432 109.63 75.554C109.806 75.6619 109.991 75.7514 110.184 75.8224C110.377 75.8906 110.555 75.946 110.717 75.9886L111.603 76.2273C111.83 76.2869 112.083 76.3693 112.362 76.4744C112.643 76.5795 112.911 76.723 113.167 76.9048C113.425 77.0838 113.638 77.3139 113.806 77.5952C113.974 77.8764 114.058 78.2216 114.058 78.6307C114.058 79.1023 113.934 79.5284 113.687 79.9091C113.442 80.2898 113.085 80.5923 112.613 80.8168C112.144 81.0412 111.575 81.1534 110.904 81.1534C110.279 81.1534 109.738 81.0526 109.281 80.8509C108.826 80.6491 108.468 80.3679 108.207 80.0071C107.948 79.6463 107.802 79.2273 107.768 78.75H108.859C108.887 79.0795 108.998 79.3523 109.191 79.5682C109.387 79.7812 109.634 79.9403 109.933 80.0455C110.234 80.1477 110.558 80.1989 110.904 80.1989C111.308 80.1989 111.67 80.1335 111.991 80.0028C112.312 79.8693 112.566 79.6847 112.754 79.4489C112.941 79.2102 113.035 78.9318 113.035 78.6136C113.035 78.3239 112.954 78.0881 112.792 77.9062C112.63 77.7244 112.417 77.5767 112.153 77.4631C111.888 77.3494 111.603 77.25 111.296 77.1648L110.222 76.858C109.54 76.6619 109.001 76.3821 108.603 76.0185C108.205 75.6548 108.006 75.179 108.006 74.5909C108.006 74.1023 108.138 73.6761 108.403 73.3125C108.67 72.946 109.028 72.6619 109.477 72.4602C109.928 72.2557 110.433 72.1534 110.989 72.1534C111.552 72.1534 112.052 72.2543 112.489 72.456C112.927 72.6548 113.273 72.9276 113.529 73.2741C113.788 73.6207 113.924 74.0142 113.938 74.4545H112.915ZM118.488 81H115.795V72.2727H118.608C119.454 72.2727 120.179 72.4474 120.781 72.7969C121.383 73.1435 121.845 73.642 122.166 74.2926C122.487 74.9403 122.647 75.7159 122.647 76.6193C122.647 77.5284 122.485 78.3111 122.162 78.9673C121.838 79.6207 121.366 80.1236 120.747 80.4759C120.127 80.8253 119.375 81 118.488 81ZM116.852 80.0625H118.42C119.142 80.0625 119.74 79.9233 120.214 79.6449C120.689 79.3665 121.042 78.9702 121.275 78.456C121.508 77.9418 121.625 77.3295 121.625 76.6193C121.625 75.9148 121.51 75.3082 121.279 74.7997C121.049 74.2884 120.706 73.8963 120.248 73.6236C119.791 73.348 119.221 73.2102 118.539 73.2102H116.852V80.0625ZM124.368 72.2727L126.959 79.6193H127.061L129.652 72.2727H130.76L127.555 81H126.464L123.26 72.2727H124.368ZM135.341 81V80.233L138.222 77.0795C138.56 76.7102 138.838 76.3892 139.057 76.1165C139.276 75.8409 139.438 75.5824 139.543 75.3409C139.651 75.0966 139.705 74.8409 139.705 74.5739C139.705 74.267 139.631 74.0014 139.483 73.777C139.338 73.5526 139.139 73.3793 138.886 73.2571C138.634 73.1349 138.349 73.0739 138.034 73.0739C137.699 73.0739 137.406 73.1435 137.156 73.2827C136.909 73.419 136.717 73.6108 136.581 73.858C136.447 74.1051 136.381 74.3949 136.381 74.7273H135.375C135.375 74.2159 135.493 73.767 135.729 73.3807C135.964 72.9943 136.286 72.6932 136.692 72.4773C137.101 72.2614 137.56 72.1534 138.068 72.1534C138.58 72.1534 139.033 72.2614 139.428 72.4773C139.822 72.6932 140.132 72.9844 140.357 73.3509C140.581 73.7173 140.693 74.125 140.693 74.5739C140.693 74.8949 140.635 75.2088 140.518 75.5156C140.405 75.8196 140.206 76.1591 139.922 76.5341C139.641 76.9062 139.25 77.3608 138.75 77.8977L136.79 79.9943V80.0625H140.847V81H135.341ZM145.453 81.1193C144.811 81.1193 144.264 80.9446 143.812 80.5952C143.361 80.2429 143.016 79.733 142.777 79.0653C142.538 78.3949 142.419 77.5852 142.419 76.6364C142.419 75.6932 142.538 74.8878 142.777 74.2202C143.018 73.5497 143.365 73.0384 143.817 72.6861C144.271 72.331 144.817 72.1534 145.453 72.1534C146.089 72.1534 146.634 72.331 147.085 72.6861C147.54 73.0384 147.886 73.5497 148.125 74.2202C148.366 74.8878 148.487 75.6932 148.487 76.6364C148.487 77.5852 148.368 78.3949 148.129 79.0653C147.891 79.733 147.545 80.2429 147.094 80.5952C146.642 80.9446 146.095 81.1193 145.453 81.1193ZM145.453 80.1818C146.089 80.1818 146.584 79.875 146.936 79.2614C147.288 78.6477 147.464 77.7727 147.464 76.6364C147.464 75.8807 147.384 75.2372 147.222 74.706C147.063 74.1747 146.832 73.7699 146.531 73.4915C146.233 73.2131 145.874 73.0739 145.453 73.0739C144.822 73.0739 144.33 73.3849 143.974 74.0071C143.619 74.6264 143.442 75.5028 143.442 76.6364C143.442 77.392 143.521 78.0341 143.68 78.5625C143.839 79.0909 144.068 79.4929 144.366 79.7685C144.668 80.044 145.03 80.1818 145.453 80.1818ZM150.107 81V80.233L152.987 77.0795C153.325 76.7102 153.604 76.3892 153.822 76.1165C154.041 75.8409 154.203 75.5824 154.308 75.3409C154.416 75.0966 154.47 74.8409 154.47 74.5739C154.47 74.267 154.396 74.0014 154.249 73.777C154.104 73.5526 153.905 73.3793 153.652 73.2571C153.399 73.1349 153.115 73.0739 152.8 73.0739C152.464 73.0739 152.172 73.1435 151.922 73.2827C151.675 73.419 151.483 73.6108 151.347 73.858C151.213 74.1051 151.146 74.3949 151.146 74.7273H150.141C150.141 74.2159 150.259 73.767 150.494 73.3807C150.73 72.9943 151.051 72.6932 151.457 72.4773C151.866 72.2614 152.325 72.1534 152.834 72.1534C153.345 72.1534 153.798 72.2614 154.193 72.4773C154.588 72.6932 154.898 72.9844 155.122 73.3509C155.347 73.7173 155.459 74.125 155.459 74.5739C155.459 74.8949 155.401 75.2088 155.284 75.5156C155.17 75.8196 154.972 76.1591 154.688 76.5341C154.406 76.9062 154.016 77.3608 153.516 77.8977L151.555 79.9943V80.0625H155.612V81H150.107ZM156.98 79.2102V78.3409L160.815 72.2727H161.446V73.6193H161.02L158.122 78.2045V78.2727H163.287V79.2102H156.98ZM161.088 81V78.946V78.5412V72.2727H162.094V81H161.088ZM167.935 73.2102V72.2727H174.48V73.2102H171.736V81H170.679V73.2102H167.935ZM176.112 81V72.2727H177.168V76.1591H181.822V72.2727H182.879V81H181.822V77.0966H177.168V81H176.112ZM184.994 81V72.2727H190.261V73.2102H186.051V76.1591H189.989V77.0966H186.051V80.0625H190.33V81H184.994ZM196.939 74.4545C196.888 74.0227 196.68 73.6875 196.317 73.4489C195.953 73.2102 195.507 73.0909 194.979 73.0909C194.592 73.0909 194.254 73.1534 193.964 73.2784C193.678 73.4034 193.453 73.5753 193.291 73.794C193.132 74.0128 193.053 74.2614 193.053 74.5398C193.053 74.7727 193.108 74.973 193.219 75.1406C193.332 75.3054 193.477 75.4432 193.653 75.554C193.83 75.6619 194.014 75.7514 194.207 75.8224C194.401 75.8906 194.578 75.946 194.74 75.9886L195.626 76.2273C195.854 76.2869 196.107 76.3693 196.385 76.4744C196.666 76.5795 196.935 76.723 197.19 76.9048C197.449 77.0838 197.662 77.3139 197.83 77.5952C197.997 77.8764 198.081 78.2216 198.081 78.6307C198.081 79.1023 197.957 79.5284 197.71 79.9091C197.466 80.2898 197.108 80.5923 196.636 80.8168C196.168 81.0412 195.598 81.1534 194.928 81.1534C194.303 81.1534 193.761 81.0526 193.304 80.8509C192.849 80.6491 192.491 80.3679 192.23 80.0071C191.972 79.6463 191.825 79.2273 191.791 78.75H192.882C192.911 79.0795 193.021 79.3523 193.214 79.5682C193.411 79.7812 193.658 79.9403 193.956 80.0455C194.257 80.1477 194.581 80.1989 194.928 80.1989C195.331 80.1989 195.693 80.1335 196.014 80.0028C196.335 79.8693 196.589 79.6847 196.777 79.4489C196.964 79.2102 197.058 78.9318 197.058 78.6136C197.058 78.3239 196.977 78.0881 196.815 77.9062C196.653 77.7244 196.44 77.5767 196.176 77.4631C195.912 77.3494 195.626 77.25 195.32 77.1648L194.246 76.858C193.564 76.6619 193.024 76.3821 192.626 76.0185C192.229 75.6548 192.03 75.179 192.03 74.5909C192.03 74.1023 192.162 73.6761 192.426 73.3125C192.693 72.946 193.051 72.6619 193.5 72.4602C193.952 72.2557 194.456 72.1534 195.013 72.1534C195.575 72.1534 196.075 72.2543 196.513 72.456C196.95 72.6548 197.297 72.9276 197.553 73.2741C197.811 73.6207 197.947 74.0142 197.962 74.4545H196.939ZM200.875 72.2727V81H199.819V72.2727H200.875ZM207.767 74.4545C207.716 74.0227 207.509 73.6875 207.145 73.4489C206.781 73.2102 206.335 73.0909 205.807 73.0909C205.42 73.0909 205.082 73.1534 204.793 73.2784C204.506 73.4034 204.281 73.5753 204.119 73.794C203.96 74.0128 203.881 74.2614 203.881 74.5398C203.881 74.7727 203.936 74.973 204.047 75.1406C204.161 75.3054 204.305 75.4432 204.482 75.554C204.658 75.6619 204.842 75.7514 205.036 75.8224C205.229 75.8906 205.406 75.946 205.568 75.9886L206.455 76.2273C206.682 76.2869 206.935 76.3693 207.213 76.4744C207.494 76.5795 207.763 76.723 208.018 76.9048C208.277 77.0838 208.49 77.3139 208.658 77.5952C208.825 77.8764 208.909 78.2216 208.909 78.6307C208.909 79.1023 208.786 79.5284 208.538 79.9091C208.294 80.2898 207.936 80.5923 207.464 80.8168C206.996 81.0412 206.426 81.1534 205.756 81.1534C205.131 81.1534 204.589 81.0526 204.132 80.8509C203.678 80.6491 203.32 80.3679 203.058 80.0071C202.8 79.6463 202.653 79.2273 202.619 78.75H203.71C203.739 79.0795 203.849 79.3523 204.043 79.5682C204.239 79.7812 204.486 79.9403 204.784 80.0455C205.085 80.1477 205.409 80.1989 205.756 80.1989C206.159 80.1989 206.521 80.1335 206.842 80.0028C207.163 79.8693 207.418 79.6847 207.605 79.4489C207.793 79.2102 207.886 78.9318 207.886 78.6136C207.886 78.3239 207.805 78.0881 207.643 77.9062C207.482 77.7244 207.268 77.5767 207.004 77.4631C206.74 77.3494 206.455 77.25 206.148 77.1648L205.074 76.858C204.392 76.6619 203.852 76.3821 203.455 76.0185C203.057 75.6548 202.858 75.179 202.858 74.5909C202.858 74.1023 202.99 73.6761 203.254 73.3125C203.521 72.946 203.879 72.6619 204.328 72.4602C204.78 72.2557 205.284 72.1534 205.841 72.1534C206.403 72.1534 206.903 72.2543 207.341 72.456C207.778 72.6548 208.125 72.9276 208.381 73.2741C208.639 73.6207 208.776 74.0142 208.79 74.4545H207.767Z" fill="black"/>
</g>
<defs>
<clipPath id="clip0_0_1">
<rect width="306" height="90" fill="white"/>
</clipPath>
</defs>
</svg>
