<svg width="1559" height="1081" viewBox="0 0 1559 1081" fill="none" xmlns="http://www.w3.org/2000/svg">
<rect width="1559" height="1081" fill="#1E1E1E"/>
<g clip-path="url(#clip0_0_1)">
<rect width="1559" height="1081" fill="#C0D9DC"/>
<path d="M248.501 514V453.617H210V450.872L210.787 449.223C228.374 412.362 237.5 372.048 237.5 331.221V327.614C245.076 324.788 256.328 321.871 270.5 321.871C284.672 321.871 295.923 324.787 303.5 327.614V331.221C303.5 372.048 312.626 412.362 330.213 449.223L331 450.872V453.617H292.501V514M268.85 299.915C268.85 299.915 251.25 288.936 251.25 275.213C251.25 264.602 259.869 256 270.5 256C281.131 256 289.703 264.602 289.703 275.213C289.703 288.936 272.15 299.915 272.15 299.915H268.85Z" stroke="#6B1F2B" stroke-width="4"/>
<path d="M403.751 514V453.729H365.688V450.99L366.465 449.344C383.853 412.551 392.875 372.312 392.875 331.56V327.96C400.365 325.139 411.489 322.228 425.5 322.228C439.511 322.228 450.634 325.139 458.125 327.96V331.56C458.125 372.312 467.147 412.551 484.535 449.344L485.312 450.99V453.729H447.251V514M423.869 300.312C423.869 300.312 406.469 289.354 406.469 275.656C406.469 265.065 414.989 256.479 425.5 256.479C436.011 256.479 444.484 265.065 444.484 275.656C444.484 289.354 427.131 300.312 427.131 300.312H423.869Z" stroke="#6B1F2B" stroke-width="4"/>
<path d="M557.547 514V453.617H520V450.872L520.767 449.223C537.918 412.362 546.818 372.048 546.818 331.221V327.614C554.207 324.788 565.179 321.871 579 321.871C592.821 321.871 603.793 324.787 611.182 327.614V331.221C611.182 372.048 620.081 412.362 637.233 449.223L638 450.872V453.617H600.456V514M577.391 299.915C577.391 299.915 560.227 288.936 560.227 275.213C560.227 264.602 568.632 256 579 256C589.368 256 597.727 264.602 597.727 275.213C597.727 288.936 580.609 299.915 580.609 299.915H577.391Z" stroke="#6B1F2B" stroke-width="4"/>
<path d="M709.501 514V453.729H671.875V450.99L672.644 449.344C689.831 412.551 698.75 372.312 698.75 331.56V327.96C706.154 325.139 717.15 322.228 731 322.228C744.85 322.228 755.845 325.139 763.25 327.96V331.56C763.25 372.312 772.168 412.551 789.356 449.344L790.125 450.99V453.729H752.501V514M729.388 300.312C729.388 300.312 712.188 289.354 712.188 275.656C712.188 265.065 720.61 256.479 731 256.479C741.39 256.479 749.766 265.065 749.766 275.656C749.766 289.354 732.612 300.312 732.612 300.312H729.388Z" stroke="#6B1F2B" stroke-width="4"/>
<path d="M853.183 514V453.617H815V450.872L815.78 449.223C833.222 412.362 842.273 372.048 842.273 331.221V327.614C849.787 324.788 860.945 321.871 875 321.871C889.055 321.871 900.213 324.787 907.727 327.614V331.221C907.727 372.048 916.777 412.362 934.22 449.223L935 450.872V453.617H896.819V514M873.364 299.915C873.364 299.915 855.909 288.936 855.909 275.213C855.909 264.602 864.456 256 875 256C885.544 256 894.044 264.602 894.044 275.213C894.044 288.936 876.636 299.915 876.636 299.915H873.364Z" stroke="#6B1F2B" stroke-width="4"/>
<path d="M1006.33 514V453.729H968.417V450.99L969.191 449.344C986.512 412.551 995.5 372.312 995.5 331.56V327.96C1002.96 325.139 1014.04 322.228 1028 322.228C1041.96 322.228 1053.04 325.139 1060.5 327.96V331.56C1060.5 372.312 1069.49 412.551 1086.81 449.344L1087.58 450.99V453.729H1049.67V514M1026.37 300.312C1026.37 300.312 1009.04 289.354 1009.04 275.656C1009.04 265.065 1017.53 256.479 1028 256.479C1038.47 256.479 1046.91 265.065 1046.91 275.656C1046.91 289.354 1029.62 300.312 1029.62 300.312H1026.37Z" stroke="#6B1F2B" stroke-width="4"/>
<rect x="1351" y="215" width="70" height="341" fill="#C0D9DC"/>
<path d="M447.001 805V736.127C447.001 724.424 456.85 714.936 469 714.936V630.169C469 630.169 452.5 619.574 425 619.574C397.5 619.574 381 630.17 381 630.17V714.936C393.151 714.936 403.001 724.425 403.001 736.129V804.999M423.35 598.383C423.35 598.383 405.75 587.787 405.75 574.543C405.75 564.302 414.369 556 425 556C435.631 556 444.203 564.302 444.203 574.543C444.203 587.787 426.65 598.383 426.65 598.383H423.35Z" stroke="#3B4A72" stroke-width="4"/>
<path d="M293.751 805V736.127C293.751 724.424 304.16 714.936 317 714.936V630.169C317 630.169 299.562 619.574 270.5 619.574C241.438 619.574 224 630.17 224 630.17V714.936C236.841 714.936 247.251 724.425 247.251 736.129V804.999M268.756 598.383C268.756 598.383 250.156 587.787 250.156 574.543C250.156 564.302 259.264 556 270.5 556C281.736 556 290.794 564.302 290.794 574.543C290.794 587.787 272.244 598.383 272.244 598.383H268.756Z" stroke="#3B4A72" stroke-width="4"/>
<path d="M602.001 805V736.127C602.001 724.424 612.298 714.936 625 714.936V630.169C625 630.169 607.75 619.574 579 619.574C550.25 619.574 533 630.17 533 630.17V714.936C545.703 714.936 556.001 724.425 556.001 736.129V804.999M577.275 598.383C577.275 598.383 558.875 587.787 558.875 574.543C558.875 564.302 567.885 556 579 556C590.115 556 599.076 564.302 599.076 574.543C599.076 587.787 580.725 598.383 580.725 598.383H577.275Z" stroke="#3B4A72" stroke-width="4"/>
<path d="M754.001 805V736.127C754.001 724.424 764.298 714.936 777 714.936V630.169C777 630.169 759.75 619.574 731 619.574C702.25 619.574 685 630.17 685 630.17V714.936C697.703 714.936 708.001 724.425 708.001 736.129V804.999M729.275 598.383C729.275 598.383 710.875 587.787 710.875 574.543C710.875 564.302 719.885 556 731 556C742.115 556 751.076 564.302 751.076 574.543C751.076 587.787 732.725 598.383 732.725 598.383H729.275Z" stroke="#3B4A72" stroke-width="4"/>
<path d="M929.524 719.08C925.104 719.08 920.857 718.083 916.784 716.09C912.71 714.097 909.374 711.107 906.774 707.12C904.174 703.047 902.874 697.977 902.874 691.91C902.874 687.057 903.437 682.637 904.564 678.65C905.69 674.663 907.12 671.153 908.854 668.12C910.587 665 912.32 662.357 914.054 660.19C915.874 657.937 917.39 656.203 918.604 654.99C920.77 652.737 923.544 650.223 926.924 647.45C930.304 644.677 934.204 642.033 938.624 639.52C943.13 637.007 948.027 635.057 953.314 633.67C954.094 633.497 954.7 633.54 955.134 633.8C955.654 634.06 955.827 634.32 955.654 634.58C955.307 635.36 954.744 635.967 953.964 636.4C953.27 636.747 952.707 637.007 952.274 637.18C946.467 639.693 941.44 642.553 937.194 645.76C933.034 648.967 929.307 652.953 926.014 657.72C924.627 659.8 922.98 662.66 921.074 666.3C919.167 669.853 917.52 673.84 916.134 678.26C914.747 682.68 914.054 687.143 914.054 691.65C914.14 696.417 915.137 700.49 917.044 703.87C918.95 707.163 921.29 709.677 924.064 711.41C926.924 713.143 929.784 714.053 932.644 714.14C936.197 714.227 939.317 713.013 942.004 710.5C944.69 707.9 946.034 703.913 946.034 698.54C946.034 695.853 945.514 693.383 944.474 691.13C943.52 688.79 942.134 686.883 940.314 685.41C938.58 683.937 936.544 683.2 934.204 683.2C931.95 683.2 930 683.33 928.354 683.59C926.794 683.85 925.277 684.37 923.804 685.15C923.024 685.497 922.547 685.497 922.374 685.15C922.287 684.717 922.46 684.24 922.894 683.72C923.587 683.027 924.15 682.463 924.584 682.03C925.104 681.597 925.71 681.12 926.404 680.6C927.357 679.907 929.09 679.04 931.604 678C934.204 676.873 936.717 676.31 939.144 676.31C942.177 676.31 944.95 677.003 947.464 678.39C950.064 679.777 952.144 681.683 953.704 684.11C955.35 686.45 956.174 689.18 956.174 692.3C956.174 696.373 955.394 700.057 953.834 703.35C952.274 706.643 950.194 709.46 947.594 711.8C944.994 714.14 942.09 715.917 938.884 717.13C935.764 718.43 932.644 719.08 929.524 719.08ZM991.075 718.82C986.655 718.82 982.798 717.607 979.505 715.18C976.298 712.753 973.611 709.547 971.445 705.56C969.278 701.487 967.675 697.023 966.635 692.17C965.595 687.317 965.075 682.507 965.075 677.74C965.075 672.8 965.595 667.817 966.635 662.79C967.675 657.763 969.278 653.17 971.445 649.01C973.698 644.85 976.558 641.513 980.025 639C983.491 636.4 987.608 635.1 992.375 635.1C996.795 635.1 1000.61 636.313 1003.81 638.74C1007.11 641.167 1009.84 644.417 1012 648.49C1014.17 652.477 1015.77 656.897 1016.81 661.75C1017.85 666.517 1018.37 671.24 1018.37 675.92C1018.37 680.773 1017.85 685.713 1016.81 690.74C1015.77 695.767 1014.13 700.403 1011.87 704.65C1009.71 708.897 1006.89 712.32 1003.42 714.92C1000.04 717.52 995.928 718.82 991.075 718.82ZM993.285 715.44C996.751 715.44 999.525 713.707 1001.6 710.24C1003.77 706.687 1005.33 702.093 1006.28 696.46C1007.24 690.827 1007.71 684.76 1007.71 678.26C1007.71 673.407 1007.32 668.64 1006.54 663.96C1005.85 659.28 1004.72 655.033 1003.16 651.22C1001.69 647.407 999.828 644.373 997.575 642.12C995.408 639.867 992.851 638.74 989.905 638.74C986.438 638.74 983.665 640.43 981.585 643.81C979.591 647.19 978.118 651.697 977.165 657.33C976.298 662.877 975.865 668.9 975.865 675.4C975.865 680.253 976.211 685.063 976.905 689.83C977.685 694.597 978.768 698.93 980.155 702.83C981.628 706.643 983.448 709.72 985.615 712.06C987.781 714.313 990.338 715.44 993.285 715.44ZM1040.15 682.81C1036.51 682.81 1033.47 681.683 1031.05 679.43C1028.62 677.09 1026.76 674.187 1025.46 670.72C1024.24 667.253 1023.64 663.7 1023.64 660.06C1023.64 656.16 1024.37 652.477 1025.85 649.01C1027.41 645.457 1029.62 642.597 1032.48 640.43C1035.34 638.177 1038.67 637.05 1042.49 637.05C1046.04 637.05 1048.99 638.133 1051.33 640.3C1053.75 642.38 1055.57 645.067 1056.79 648.36C1058.09 651.653 1058.74 655.077 1058.74 658.63C1058.74 662.53 1058 666.343 1056.53 670.07C1055.14 673.797 1053.06 676.873 1050.29 679.3C1047.51 681.64 1044.13 682.81 1040.15 682.81ZM1041.58 679.95C1044.44 679.95 1046.52 678.91 1047.82 676.83C1049.2 674.75 1050.07 672.193 1050.42 669.16C1050.76 666.04 1050.94 663.05 1050.94 660.19C1050.94 657.243 1050.72 654.253 1050.29 651.22C1049.85 648.187 1048.94 645.63 1047.56 643.55C1046.17 641.383 1044 640.3 1041.06 640.3C1038.37 640.3 1036.33 641.297 1034.95 643.29C1033.56 645.197 1032.61 647.58 1032.09 650.44C1031.65 653.213 1031.44 655.943 1031.44 658.63C1031.44 660.97 1031.52 663.397 1031.7 665.91C1031.96 668.337 1032.39 670.633 1033 672.8C1033.69 674.88 1034.69 676.613 1035.99 678C1037.37 679.3 1039.24 679.95 1041.58 679.95ZM1086.95 632.76C1087.55 631.807 1088.25 631.2 1089.03 630.94C1089.89 630.68 1090.89 630.55 1092.02 630.55C1092.45 630.55 1092.84 630.723 1093.19 631.07C1093.62 631.417 1093.84 631.807 1093.84 632.24C1093.84 632.5 1093.79 632.673 1093.71 632.76L1036.77 723.11C1036.25 723.977 1035.55 724.497 1034.69 724.67C1033.91 724.93 1033.04 725.06 1032.09 725.06C1031.57 725.06 1031.05 724.887 1030.53 724.54C1030.09 724.193 1029.88 723.847 1029.88 723.5C1029.88 723.327 1029.92 723.197 1030.01 723.11L1086.95 632.76ZM1085.65 719.21C1082.01 719.21 1078.97 718.083 1076.55 715.83C1074.12 713.49 1072.26 710.587 1070.96 707.12C1069.74 703.653 1069.14 700.1 1069.14 696.46C1069.14 692.56 1069.87 688.877 1071.35 685.41C1072.91 681.857 1075.12 678.997 1077.98 676.83C1080.84 674.577 1084.17 673.45 1087.99 673.45C1091.54 673.45 1094.49 674.533 1096.83 676.7C1099.25 678.78 1101.07 681.467 1102.29 684.76C1103.59 688.053 1104.24 691.477 1104.24 695.03C1104.24 698.93 1103.5 702.743 1102.03 706.47C1100.64 710.197 1098.56 713.273 1095.79 715.7C1093.01 718.04 1089.63 719.21 1085.65 719.21ZM1087.08 716.35C1089.94 716.35 1092.02 715.31 1093.32 713.23C1094.7 711.15 1095.57 708.593 1095.92 705.56C1096.26 702.44 1096.44 699.45 1096.44 696.59C1096.44 693.643 1096.22 690.653 1095.79 687.62C1095.35 684.587 1094.44 682.03 1093.06 679.95C1091.67 677.783 1089.5 676.7 1086.56 676.7C1083.87 676.7 1081.83 677.697 1080.45 679.69C1079.06 681.597 1078.11 683.98 1077.59 686.84C1077.15 689.613 1076.94 692.343 1076.94 695.03C1076.94 697.37 1077.02 699.797 1077.2 702.31C1077.46 704.737 1077.89 707.033 1078.5 709.2C1079.19 711.28 1080.19 713.013 1081.49 714.4C1082.87 715.7 1084.74 716.35 1087.08 716.35Z" fill="#6B1F2B"/>
<path d="M840.371 776.225C839.981 776.225 839.666 776.18 839.426 776.09C839.186 776.03 839.066 775.91 839.066 775.73C839.066 775.37 839.561 775.1 840.551 774.92C841.691 774.71 842.471 774.365 842.891 773.885C843.341 773.405 843.566 772.61 843.566 771.5V752.51C843.566 751.16 843.386 750.125 843.026 749.405C842.696 748.685 841.961 748.22 840.821 748.01C840.311 747.92 839.936 747.8 839.696 747.65C839.456 747.5 839.336 747.32 839.336 747.11C839.336 746.93 839.456 746.81 839.696 746.75C839.936 746.66 840.251 746.615 840.641 746.615C841.751 746.615 842.681 746.63 843.431 746.66C844.211 746.69 844.976 746.72 845.726 746.75C846.476 746.75 847.361 746.75 848.381 746.75C849.251 746.75 850.181 746.75 851.171 746.75C852.161 746.75 853.121 746.75 854.051 746.75C855.011 746.75 855.851 746.675 856.571 746.525C857.321 746.375 857.966 746.3 858.506 746.3C858.656 746.3 858.821 746.33 859.001 746.39C859.181 746.45 859.286 746.555 859.316 746.705C859.376 747.035 859.421 747.53 859.451 748.19C859.481 748.82 859.496 749.435 859.496 750.035C859.526 750.635 859.541 751.04 859.541 751.25C859.541 751.88 859.406 752.195 859.136 752.195C858.986 752.195 858.851 752.15 858.731 752.06C858.611 751.94 858.521 751.805 858.461 751.655C858.341 751.145 858.191 750.71 858.011 750.35C857.831 749.96 857.636 749.66 857.426 749.45C857.006 748.97 856.541 748.655 856.031 748.505C855.521 748.325 854.981 748.235 854.411 748.235H848.696C848.006 748.235 847.586 748.46 847.436 748.91C847.286 749.36 847.196 749.885 847.166 750.485C847.136 751.055 847.121 751.76 847.121 752.6C847.121 753.41 847.121 754.205 847.121 754.985C847.121 755.735 847.121 756.5 847.121 757.28C847.121 758.06 847.136 758.72 847.166 759.26C847.166 759.5 847.181 759.725 847.211 759.935C847.271 760.145 847.406 760.25 847.616 760.25C848.576 760.25 849.551 760.235 850.541 760.205C851.531 760.145 852.296 760.115 852.836 760.115C853.496 760.115 854.066 759.935 854.546 759.575C855.026 759.215 855.371 758.78 855.581 758.27C855.641 758.15 855.761 758 855.941 757.82C856.121 757.61 856.271 757.505 856.391 757.505C856.511 757.505 856.646 757.58 856.796 757.73C856.946 757.85 857.006 758.015 856.976 758.225C856.946 758.735 856.916 759.185 856.886 759.575C856.856 759.965 856.841 760.34 856.841 760.7C856.841 761.15 856.856 761.615 856.886 762.095C856.916 762.545 856.946 763.1 856.976 763.76C856.976 763.97 856.946 764.15 856.886 764.3C856.856 764.45 856.751 764.525 856.571 764.525C856.271 764.525 856.031 764.39 855.851 764.12C855.701 763.85 855.596 763.64 855.536 763.49C855.326 762.8 855.011 762.335 854.591 762.095C854.171 761.825 853.781 761.69 853.421 761.69C853.031 761.69 852.641 761.69 852.251 761.69C851.891 761.66 851.531 761.645 851.171 761.645C850.661 761.645 850.166 761.645 849.686 761.645C849.206 761.645 848.726 761.675 848.246 761.735C847.946 761.765 847.691 761.87 847.481 762.05C847.271 762.2 847.166 762.47 847.166 762.86C847.166 764.24 847.166 765.65 847.166 767.09C847.196 768.5 847.241 769.955 847.301 771.455C847.361 772.415 847.586 773.18 847.976 773.75C848.396 774.32 849.161 774.71 850.271 774.92C850.781 775.01 851.156 775.115 851.396 775.235C851.636 775.355 851.756 775.52 851.756 775.73C851.756 775.91 851.636 776.03 851.396 776.09C851.156 776.18 850.841 776.225 850.451 776.225C849.641 776.225 849.011 776.195 848.561 776.135C848.141 776.075 847.751 776.03 847.391 776C847.061 775.94 846.611 775.91 846.041 775.91C845.321 775.91 844.676 775.94 844.106 776C843.566 776.03 843.011 776.075 842.441 776.135C841.871 776.195 841.181 776.225 840.371 776.225ZM868.966 776.675C867.316 776.675 865.876 776.27 864.646 775.46C863.416 774.65 862.456 773.51 861.766 772.04C861.076 770.54 860.731 768.815 860.731 766.865C860.731 765.125 861.121 763.55 861.901 762.14C862.711 760.7 863.776 759.545 865.096 758.675C866.416 757.805 867.856 757.37 869.416 757.37C870.616 757.37 871.681 757.61 872.611 758.09C873.541 758.57 874.261 759.245 874.771 760.115C875.311 760.955 875.581 761.93 875.581 763.04C875.581 763.97 875.131 764.435 874.231 764.435H864.736C864.316 764.435 864.016 764.555 863.836 764.795C863.686 765.005 863.611 765.44 863.611 766.1C863.611 767.54 863.926 768.86 864.556 770.06C865.186 771.23 866.026 772.175 867.076 772.895C868.126 773.585 869.281 773.93 870.541 773.93C871.441 773.93 872.251 773.765 872.971 773.435C873.721 773.075 874.381 772.565 874.951 771.905C875.071 771.755 875.161 771.665 875.221 771.635C875.281 771.575 875.356 771.545 875.446 771.545C875.686 771.545 875.806 771.695 875.806 771.995C875.806 772.565 875.536 773.195 874.996 773.885C874.546 774.455 874.006 774.95 873.376 775.37C872.746 775.79 872.056 776.105 871.306 776.315C870.556 776.555 869.776 776.675 868.966 776.675ZM864.826 763.04H868.921C869.641 763.04 870.256 763.025 870.766 762.995C871.276 762.965 871.771 762.905 872.251 762.815C872.401 762.785 872.491 762.695 872.521 762.545C872.581 762.365 872.611 762.125 872.611 761.825C872.611 760.955 872.221 760.22 871.441 759.62C870.691 758.99 869.791 758.675 868.741 758.675C868.051 758.675 867.361 758.885 866.671 759.305C865.981 759.695 865.411 760.19 864.961 760.79C864.511 761.39 864.286 761.99 864.286 762.59C864.286 762.89 864.466 763.04 864.826 763.04ZM878.895 776.135C878.655 776.135 878.445 776.105 878.265 776.045C878.085 775.985 877.995 775.85 877.995 775.64C877.995 775.43 878.085 775.28 878.265 775.19C878.475 775.1 878.73 775.01 879.03 774.92C879.45 774.77 879.87 774.605 880.29 774.425C880.74 774.215 880.965 773.81 880.965 773.21V763.535C880.965 762.725 880.875 762.02 880.695 761.42C880.515 760.79 880.035 760.415 879.255 760.295C879.135 760.265 879.03 760.205 878.94 760.115C878.88 760.025 878.85 759.89 878.85 759.71C878.85 759.41 878.97 759.23 879.21 759.17C880.02 758.96 880.665 758.75 881.145 758.54C881.625 758.3 882.045 758.045 882.405 757.775C882.795 757.475 883.26 757.16 883.8 756.83C883.86 756.8 883.92 756.77 883.98 756.74C884.04 756.68 884.115 756.65 884.205 756.65C884.385 756.65 884.475 756.755 884.475 756.965C884.475 757.175 884.43 757.61 884.34 758.27C884.28 758.9 884.25 759.425 884.25 759.845C884.25 760.145 884.28 760.325 884.34 760.385H884.43C885.12 759.725 886.02 759.065 887.13 758.405C888.27 757.715 889.71 757.37 891.45 757.37C892.53 757.37 893.43 757.61 894.15 758.09C894.87 758.54 895.47 759.335 895.95 760.475H896.085C897.045 759.605 898.14 758.87 899.37 758.27C900.6 757.67 901.95 757.37 903.42 757.37C904.41 757.37 905.235 757.67 905.895 758.27C906.555 758.87 907.05 759.65 907.38 760.61C907.74 761.57 907.92 762.575 907.92 763.625V773.21C907.92 773.81 908.13 774.215 908.55 774.425C908.97 774.605 909.405 774.77 909.855 774.92C910.155 775.01 910.395 775.1 910.575 775.19C910.785 775.28 910.89 775.43 910.89 775.64C910.89 775.82 910.815 775.94 910.665 776C910.545 776.09 910.32 776.135 909.99 776.135C909.39 776.135 908.925 776.105 908.595 776.045C908.265 776.015 907.95 775.985 907.65 775.955C907.38 775.925 906.975 775.91 906.435 775.91C905.925 775.91 905.505 775.925 905.175 775.955C904.845 775.985 904.5 776.015 904.14 776.045C903.78 776.105 903.3 776.135 902.7 776.135C902.43 776.135 902.205 776.09 902.025 776C901.875 775.94 901.8 775.82 901.8 775.64C901.8 775.4 901.89 775.235 902.07 775.145C902.28 775.055 902.535 774.98 902.835 774.92C903.315 774.8 903.75 774.635 904.14 774.425C904.56 774.215 904.77 773.81 904.77 773.21V763.76C904.77 763.04 904.605 762.365 904.275 761.735C903.945 761.075 903.51 760.535 902.97 760.115C902.43 759.695 901.83 759.485 901.17 759.485C900.42 759.485 899.715 759.575 899.055 759.755C898.425 759.935 897.825 760.25 897.255 760.7C896.415 761.36 895.995 762.44 895.995 763.94V773.21C895.995 773.81 896.22 774.215 896.67 774.425C897.12 774.635 897.57 774.8 898.02 774.92C898.32 774.98 898.56 775.07 898.74 775.19C898.95 775.28 899.055 775.43 899.055 775.64C899.055 775.82 898.98 775.94 898.83 776C898.68 776.09 898.455 776.135 898.155 776.135C897.555 776.135 897.075 776.105 896.715 776.045C896.385 776.015 896.055 775.985 895.725 775.955C895.425 775.925 895.005 775.91 894.465 775.91C893.955 775.91 893.535 775.925 893.205 775.955C892.875 775.985 892.53 776.015 892.17 776.045C891.81 776.105 891.33 776.135 890.73 776.135C890.49 776.135 890.28 776.09 890.1 776C889.92 775.94 889.83 775.82 889.83 775.64C889.83 775.4 889.935 775.25 890.145 775.19C890.385 775.1 890.625 775.01 890.865 774.92C891.315 774.77 891.75 774.605 892.17 774.425C892.62 774.215 892.845 773.81 892.845 773.21V763.76C892.845 763.04 892.68 762.365 892.35 761.735C892.02 761.075 891.585 760.535 891.045 760.115C890.505 759.695 889.905 759.485 889.245 759.485C888.495 759.485 887.79 759.575 887.13 759.755C886.5 759.935 885.9 760.25 885.33 760.7C884.52 761.3 884.115 762.38 884.115 763.94V773.21C884.115 773.81 884.325 774.215 884.745 774.425C885.165 774.605 885.6 774.77 886.05 774.92C886.29 775.01 886.515 775.1 886.725 775.19C886.965 775.25 887.085 775.4 887.085 775.64C887.085 775.82 886.995 775.94 886.815 776C886.665 776.09 886.455 776.135 886.185 776.135C885.585 776.135 885.105 776.105 884.745 776.045C884.415 776.015 884.1 775.985 883.8 775.955C883.5 775.925 883.08 775.91 882.54 775.91C882.03 775.91 881.61 775.925 881.28 775.955C880.98 775.985 880.65 776.015 880.29 776.045C879.96 776.105 879.495 776.135 878.895 776.135ZM917.204 776.63C916.664 776.63 916.109 776.42 915.539 776C914.999 775.58 914.534 775.07 914.144 774.47C913.784 773.87 913.604 773.3 913.604 772.76C913.604 771.8 913.859 771.05 914.369 770.51C914.879 769.97 915.689 769.475 916.799 769.025L921.389 767.135C921.989 766.895 922.334 766.685 922.424 766.505C922.544 766.325 922.619 765.935 922.649 765.335L922.739 762.455C922.769 761.675 922.544 761 922.064 760.43C921.614 759.86 920.954 759.575 920.084 759.575C919.634 759.575 919.184 759.65 918.734 759.8C918.284 759.95 917.909 760.145 917.609 760.385C917.429 760.505 917.309 760.685 917.249 760.925C917.189 761.165 917.159 761.42 917.159 761.69C917.159 761.81 917.159 761.945 917.159 762.095C917.189 762.245 917.204 762.38 917.204 762.5C917.204 762.65 917.009 762.86 916.619 763.13C916.259 763.37 915.839 763.595 915.359 763.805C914.909 763.985 914.534 764.075 914.234 764.075C914.084 764.075 913.964 764.045 913.874 763.985C913.784 763.895 913.739 763.79 913.739 763.67C913.739 763.19 913.889 762.68 914.189 762.14C914.519 761.57 914.969 761.045 915.539 760.565C916.229 759.935 916.979 759.38 917.789 758.9C918.599 758.42 919.394 758.045 920.174 757.775C920.954 757.505 921.644 757.37 922.244 757.37C923.324 757.37 924.209 757.76 924.899 758.54C925.619 759.29 925.964 760.235 925.934 761.375L925.709 772.175C925.679 772.805 925.814 773.315 926.114 773.705C926.444 774.095 926.849 774.29 927.329 774.29C928.079 774.29 928.634 774.125 928.994 773.795C929.144 773.645 929.264 773.57 929.354 773.57C929.504 773.57 929.624 773.615 929.714 773.705C929.804 773.795 929.849 773.915 929.849 774.065C929.849 774.395 929.684 774.725 929.354 775.055C928.874 775.535 928.349 775.91 927.779 776.18C927.239 776.48 926.729 776.63 926.249 776.63C924.869 776.63 923.774 775.85 922.964 774.29H922.829C921.839 775.1 920.894 775.685 919.994 776.045C919.094 776.435 918.164 776.63 917.204 776.63ZM919.319 774.47C919.919 774.47 920.429 774.38 920.849 774.2C921.269 773.99 921.644 773.72 921.974 773.39C922.124 773.24 922.244 773.045 922.334 772.805C922.454 772.535 922.529 772.115 922.559 771.545L922.649 769.34C922.679 769.01 922.664 768.77 922.604 768.62C922.544 768.47 922.424 768.395 922.244 768.395C922.184 768.395 922.079 768.41 921.929 768.44C921.779 768.47 921.584 768.53 921.344 768.62C919.754 769.19 918.644 769.79 918.014 770.42C917.414 771.02 917.114 771.575 917.114 772.085C917.114 772.865 917.339 773.465 917.789 773.885C918.269 774.275 918.779 774.47 919.319 774.47ZM931.668 776.135C931.518 776.135 931.323 776.105 931.083 776.045C930.873 776.015 930.768 775.91 930.768 775.73C930.768 775.49 930.873 775.325 931.083 775.235C931.323 775.115 931.563 775.01 931.803 774.92C932.253 774.77 932.688 774.605 933.108 774.425C933.528 774.215 933.738 773.81 933.738 773.21V750.53C933.738 749.66 933.573 748.94 933.243 748.37C932.943 747.77 932.418 747.395 931.668 747.245C931.428 747.185 931.308 746.99 931.308 746.66C931.308 746.36 931.413 746.18 931.623 746.12C932.403 745.94 933.078 745.76 933.648 745.58C934.218 745.37 934.743 745.16 935.223 744.95C935.733 744.74 936.228 744.545 936.708 744.365C936.828 744.305 936.918 744.275 936.978 744.275C937.038 744.275 937.083 744.32 937.113 744.41C937.173 744.47 937.203 744.53 937.203 744.59C937.203 744.86 937.143 745.445 937.023 746.345C936.933 747.215 936.888 748.67 936.888 750.71V773.21C936.888 773.81 937.098 774.215 937.518 774.425C937.938 774.605 938.373 774.77 938.823 774.92C939.063 775.01 939.288 775.115 939.498 775.235C939.738 775.325 939.858 775.49 939.858 775.73C939.858 775.91 939.738 776.015 939.498 776.045C939.288 776.105 939.108 776.135 938.958 776.135C938.388 776.135 937.923 776.105 937.563 776.045C937.233 776.015 936.903 775.985 936.573 775.955C936.273 775.925 935.853 775.91 935.313 775.91C934.803 775.91 934.383 775.925 934.053 775.955C933.723 775.985 933.393 776.015 933.063 776.045C932.733 776.105 932.268 776.135 931.668 776.135ZM950.309 776.675C948.659 776.675 947.219 776.27 945.989 775.46C944.759 774.65 943.799 773.51 943.109 772.04C942.419 770.54 942.074 768.815 942.074 766.865C942.074 765.125 942.464 763.55 943.244 762.14C944.054 760.7 945.119 759.545 946.439 758.675C947.759 757.805 949.199 757.37 950.759 757.37C951.959 757.37 953.024 757.61 953.954 758.09C954.884 758.57 955.604 759.245 956.114 760.115C956.654 760.955 956.924 761.93 956.924 763.04C956.924 763.97 956.474 764.435 955.574 764.435H946.079C945.659 764.435 945.359 764.555 945.179 764.795C945.029 765.005 944.954 765.44 944.954 766.1C944.954 767.54 945.269 768.86 945.899 770.06C946.529 771.23 947.369 772.175 948.419 772.895C949.469 773.585 950.624 773.93 951.884 773.93C952.784 773.93 953.594 773.765 954.314 773.435C955.064 773.075 955.724 772.565 956.294 771.905C956.414 771.755 956.504 771.665 956.564 771.635C956.624 771.575 956.699 771.545 956.789 771.545C957.029 771.545 957.149 771.695 957.149 771.995C957.149 772.565 956.879 773.195 956.339 773.885C955.889 774.455 955.349 774.95 954.719 775.37C954.089 775.79 953.399 776.105 952.649 776.315C951.899 776.555 951.119 776.675 950.309 776.675ZM946.169 763.04H950.264C950.984 763.04 951.599 763.025 952.109 762.995C952.619 762.965 953.114 762.905 953.594 762.815C953.744 762.785 953.834 762.695 953.864 762.545C953.924 762.365 953.954 762.125 953.954 761.825C953.954 760.955 953.564 760.22 952.784 759.62C952.034 758.99 951.134 758.675 950.084 758.675C949.394 758.675 948.704 758.885 948.014 759.305C947.324 759.695 946.754 760.19 946.304 760.79C945.854 761.39 945.629 761.99 945.629 762.59C945.629 762.89 945.809 763.04 946.169 763.04ZM983.962 776.315C983.662 776.315 982.987 776.285 981.937 776.225C980.917 776.165 979.732 776.105 978.382 776.045C977.062 776.015 975.802 776 974.602 776C974.002 776 973.492 776.015 973.072 776.045C972.682 776.075 972.247 776.105 971.767 776.135C971.317 776.195 970.687 776.225 969.877 776.225C969.487 776.225 969.172 776.18 968.932 776.09C968.692 776 968.572 775.85 968.572 775.64C968.572 775.4 968.692 775.25 968.932 775.19C969.172 775.1 969.547 775.01 970.057 774.92C971.197 774.71 971.977 774.365 972.397 773.885C972.847 773.405 973.072 772.625 973.072 771.545V751.295C973.072 750.215 972.847 749.45 972.397 749C971.977 748.55 971.197 748.22 970.057 748.01C969.547 747.92 969.172 747.83 968.932 747.74C968.692 747.62 968.572 747.44 968.572 747.2C968.572 746.99 968.692 746.84 968.932 746.75C969.172 746.66 969.487 746.615 969.877 746.615C970.657 746.615 971.272 746.63 971.722 746.66C972.202 746.66 972.667 746.675 973.117 746.705C973.567 746.705 974.152 746.705 974.872 746.705C975.352 746.705 975.952 746.69 976.672 746.66C977.422 746.63 978.187 746.585 978.967 746.525C979.777 746.465 980.497 746.42 981.127 746.39C981.787 746.36 982.267 746.345 982.567 746.345C985.627 746.345 988.237 746.72 990.397 747.47C992.557 748.19 994.312 749.21 995.662 750.53C997.012 751.82 998.002 753.335 998.632 755.075C999.292 756.785 999.622 758.63 999.622 760.61C999.622 762.77 999.217 764.795 998.407 766.685C997.597 768.575 996.472 770.255 995.032 771.725C993.592 773.165 991.927 774.29 990.037 775.1C988.147 775.91 986.122 776.315 983.962 776.315ZM983.422 774.74C985.762 774.74 987.832 774.17 989.632 773.03C991.432 771.89 992.827 770.315 993.817 768.305C994.837 766.295 995.347 763.985 995.347 761.375C995.347 759.215 994.987 757.295 994.267 755.615C993.547 753.905 992.587 752.48 991.387 751.34C990.187 750.17 988.837 749.285 987.337 748.685C985.837 748.055 984.322 747.74 982.792 747.74C981.502 747.74 980.392 747.785 979.462 747.875C978.562 747.935 977.872 748.16 977.392 748.55C976.912 748.94 976.672 749.585 976.672 750.485V770.555C976.672 771.755 977.002 772.655 977.662 773.255C978.322 773.855 979.162 774.26 980.182 774.47C981.232 774.65 982.312 774.74 983.422 774.74ZM1011.72 776.63C1010.04 776.63 1008.53 776.24 1007.18 775.46C1005.83 774.68 1004.75 773.615 1003.94 772.265C1003.16 770.885 1002.77 769.325 1002.77 767.585C1002.77 766.325 1003.01 765.095 1003.49 763.895C1004 762.695 1004.7 761.6 1005.6 760.61C1006.5 759.62 1007.55 758.84 1008.75 758.27C1009.95 757.67 1011.24 757.37 1012.62 757.37C1014.36 757.37 1015.92 757.79 1017.3 758.63C1018.71 759.47 1019.82 760.58 1020.63 761.96C1021.47 763.31 1021.89 764.795 1021.89 766.415C1021.89 768.155 1021.5 769.805 1020.72 771.365C1019.97 772.925 1018.85 774.2 1017.35 775.19C1015.85 776.15 1013.97 776.63 1011.72 776.63ZM1012.67 775.28C1013.69 775.28 1014.6 775.085 1015.41 774.695C1016.22 774.305 1016.85 773.675 1017.3 772.805C1017.66 772.115 1017.9 771.275 1018.02 770.285C1018.14 769.295 1018.2 768.365 1018.2 767.495C1018.2 766.055 1017.93 764.675 1017.39 763.355C1016.88 762.005 1016.15 760.91 1015.19 760.07C1014.26 759.2 1013.15 758.765 1011.86 758.765C1011.05 758.765 1010.31 758.9 1009.65 759.17C1009.02 759.41 1008.44 759.875 1007.9 760.565C1007.3 761.315 1006.91 762.23 1006.73 763.31C1006.55 764.39 1006.46 765.47 1006.46 766.55C1006.46 768.02 1006.73 769.43 1007.27 770.78C1007.81 772.1 1008.54 773.18 1009.47 774.02C1010.4 774.86 1011.47 775.28 1012.67 775.28ZM1025.45 776.135C1025.21 776.135 1025 776.105 1024.82 776.045C1024.64 775.985 1024.55 775.85 1024.55 775.64C1024.55 775.43 1024.64 775.28 1024.82 775.19C1025.03 775.1 1025.29 775.01 1025.59 774.92C1026.01 774.77 1026.43 774.605 1026.85 774.425C1027.3 774.215 1027.52 773.81 1027.52 773.21V763.535C1027.52 762.725 1027.43 762.02 1027.25 761.42C1027.07 760.79 1026.59 760.415 1025.81 760.295C1025.69 760.265 1025.59 760.205 1025.5 760.115C1025.44 760.025 1025.41 759.89 1025.41 759.71C1025.41 759.41 1025.53 759.23 1025.77 759.17C1026.58 758.96 1027.22 758.75 1027.7 758.54C1028.18 758.3 1028.6 758.045 1028.96 757.775C1029.35 757.475 1029.82 757.16 1030.36 756.83C1030.42 756.8 1030.48 756.77 1030.54 756.74C1030.6 756.68 1030.67 756.65 1030.76 756.65C1030.94 756.65 1031.03 756.755 1031.03 756.965C1031.03 757.175 1030.99 757.61 1030.9 758.27C1030.84 758.9 1030.81 759.425 1030.81 759.845C1030.81 760.145 1030.84 760.325 1030.9 760.385H1030.99C1031.68 759.725 1032.58 759.065 1033.69 758.405C1034.83 757.715 1036.27 757.37 1038.01 757.37C1039.09 757.37 1039.99 757.61 1040.71 758.09C1041.43 758.54 1042.03 759.335 1042.51 760.475H1042.64C1043.6 759.605 1044.7 758.87 1045.93 758.27C1047.16 757.67 1048.51 757.37 1049.98 757.37C1050.97 757.37 1051.79 757.67 1052.45 758.27C1053.11 758.87 1053.61 759.65 1053.94 760.61C1054.3 761.57 1054.48 762.575 1054.48 763.625V773.21C1054.48 773.81 1054.69 774.215 1055.11 774.425C1055.53 774.605 1055.96 774.77 1056.41 774.92C1056.71 775.01 1056.95 775.1 1057.13 775.19C1057.34 775.28 1057.45 775.43 1057.45 775.64C1057.45 775.82 1057.37 775.94 1057.22 776C1057.1 776.09 1056.88 776.135 1056.55 776.135C1055.95 776.135 1055.48 776.105 1055.15 776.045C1054.82 776.015 1054.51 775.985 1054.21 775.955C1053.94 775.925 1053.53 775.91 1052.99 775.91C1052.48 775.91 1052.06 775.925 1051.73 775.955C1051.4 775.985 1051.06 776.015 1050.7 776.045C1050.34 776.105 1049.86 776.135 1049.26 776.135C1048.99 776.135 1048.76 776.09 1048.58 776C1048.43 775.94 1048.36 775.82 1048.36 775.64C1048.36 775.4 1048.45 775.235 1048.63 775.145C1048.84 775.055 1049.09 774.98 1049.39 774.92C1049.87 774.8 1050.31 774.635 1050.7 774.425C1051.12 774.215 1051.33 773.81 1051.33 773.21V763.76C1051.33 763.04 1051.16 762.365 1050.83 761.735C1050.5 761.075 1050.07 760.535 1049.53 760.115C1048.99 759.695 1048.39 759.485 1047.73 759.485C1046.98 759.485 1046.27 759.575 1045.61 759.755C1044.98 759.935 1044.38 760.25 1043.81 760.7C1042.97 761.36 1042.55 762.44 1042.55 763.94V773.21C1042.55 773.81 1042.78 774.215 1043.23 774.425C1043.68 774.635 1044.13 774.8 1044.58 774.92C1044.88 774.98 1045.12 775.07 1045.3 775.19C1045.51 775.28 1045.61 775.43 1045.61 775.64C1045.61 775.82 1045.54 775.94 1045.39 776C1045.24 776.09 1045.01 776.135 1044.71 776.135C1044.11 776.135 1043.63 776.105 1043.27 776.045C1042.94 776.015 1042.61 775.985 1042.28 775.955C1041.98 775.925 1041.56 775.91 1041.02 775.91C1040.51 775.91 1040.09 775.925 1039.76 775.955C1039.43 775.985 1039.09 776.015 1038.73 776.045C1038.37 776.105 1037.89 776.135 1037.29 776.135C1037.05 776.135 1036.84 776.09 1036.66 776C1036.48 775.94 1036.39 775.82 1036.39 775.64C1036.39 775.4 1036.49 775.25 1036.7 775.19C1036.94 775.1 1037.18 775.01 1037.42 774.92C1037.87 774.77 1038.31 774.605 1038.73 774.425C1039.18 774.215 1039.4 773.81 1039.4 773.21V763.76C1039.4 763.04 1039.24 762.365 1038.91 761.735C1038.58 761.075 1038.14 760.535 1037.6 760.115C1037.06 759.695 1036.46 759.485 1035.8 759.485C1035.05 759.485 1034.35 759.575 1033.69 759.755C1033.06 759.935 1032.46 760.25 1031.89 760.7C1031.08 761.3 1030.67 762.38 1030.67 763.94V773.21C1030.67 773.81 1030.88 774.215 1031.3 774.425C1031.72 774.605 1032.16 774.77 1032.61 774.92C1032.85 775.01 1033.07 775.1 1033.28 775.19C1033.52 775.25 1033.64 775.4 1033.64 775.64C1033.64 775.82 1033.55 775.94 1033.37 776C1033.22 776.09 1033.01 776.135 1032.74 776.135C1032.14 776.135 1031.66 776.105 1031.3 776.045C1030.97 776.015 1030.66 775.985 1030.36 775.955C1030.06 775.925 1029.64 775.91 1029.1 775.91C1028.59 775.91 1028.17 775.925 1027.84 775.955C1027.54 775.985 1027.21 776.015 1026.85 776.045C1026.52 776.105 1026.05 776.135 1025.45 776.135ZM1060.48 776.135C1060.21 776.135 1059.98 776.09 1059.8 776C1059.65 775.94 1059.58 775.82 1059.58 775.64C1059.58 775.4 1059.68 775.235 1059.89 775.145C1060.13 775.055 1060.37 774.98 1060.61 774.92C1061.24 774.77 1061.72 774.59 1062.05 774.38C1062.38 774.14 1062.55 773.75 1062.55 773.21V763.445C1062.55 762.635 1062.4 761.915 1062.1 761.285C1061.83 760.655 1061.3 760.28 1060.52 760.16C1060.37 760.13 1060.25 760.07 1060.16 759.98C1060.1 759.89 1060.07 759.755 1060.07 759.575C1060.07 759.245 1060.21 759.065 1060.48 759.035C1061.68 758.765 1062.67 758.405 1063.45 757.955C1064.23 757.475 1064.81 757.085 1065.2 756.785C1065.47 756.575 1065.68 756.47 1065.83 756.47C1066.01 756.47 1066.1 756.545 1066.1 756.695C1066.1 756.935 1066.06 757.415 1065.97 758.135C1065.91 758.825 1065.85 759.605 1065.79 760.475C1065.73 761.315 1065.7 762.08 1065.7 762.77V773.21C1065.7 773.72 1065.86 774.095 1066.19 774.335C1066.55 774.575 1067.03 774.77 1067.63 774.92C1067.87 774.98 1068.1 775.055 1068.31 775.145C1068.55 775.235 1068.67 775.4 1068.67 775.64C1068.67 775.97 1068.37 776.135 1067.77 776.135C1067.2 776.135 1066.73 776.105 1066.37 776.045C1066.04 776.015 1065.71 775.985 1065.38 775.955C1065.08 775.925 1064.66 775.91 1064.12 775.91C1063.61 775.91 1063.19 775.925 1062.86 775.955C1062.53 775.985 1062.2 776.015 1061.87 776.045C1061.54 776.105 1061.08 776.135 1060.48 776.135ZM1064.08 752.78C1063.45 752.78 1062.91 752.57 1062.46 752.15C1062.04 751.7 1061.83 751.16 1061.83 750.53C1061.83 749.87 1062.04 749.33 1062.46 748.91C1062.91 748.46 1063.45 748.235 1064.08 748.235C1064.74 748.235 1065.28 748.46 1065.7 748.91C1066.15 749.33 1066.37 749.87 1066.37 750.53C1066.37 751.16 1066.15 751.7 1065.7 752.15C1065.28 752.57 1064.74 752.78 1064.08 752.78ZM1071.51 776.135C1071.24 776.135 1071.01 776.09 1070.83 776C1070.68 775.94 1070.61 775.82 1070.61 775.64C1070.61 775.4 1070.7 775.25 1070.88 775.19C1071.06 775.1 1071.31 775.01 1071.64 774.92C1072.09 774.8 1072.53 774.635 1072.95 774.425C1073.37 774.215 1073.58 773.81 1073.58 773.21V763.535C1073.58 762.725 1073.49 762.035 1073.31 761.465C1073.16 760.895 1072.69 760.505 1071.91 760.295C1071.79 760.235 1071.69 760.175 1071.6 760.115C1071.51 760.025 1071.46 759.89 1071.46 759.71C1071.46 759.38 1071.6 759.2 1071.87 759.17C1072.92 758.9 1073.77 758.57 1074.43 758.18C1075.09 757.79 1075.74 757.355 1076.37 756.875C1076.46 756.815 1076.53 756.77 1076.59 756.74C1076.68 756.68 1076.77 756.65 1076.86 756.65C1076.92 756.65 1076.97 756.68 1077 756.74C1077.06 756.8 1077.09 756.875 1077.09 756.965C1077.09 757.175 1077.04 757.61 1076.95 758.27C1076.89 758.9 1076.86 759.425 1076.86 759.845C1076.86 759.965 1076.86 760.085 1076.86 760.205C1076.89 760.295 1076.92 760.355 1076.95 760.385C1078 759.395 1079.11 758.645 1080.28 758.135C1081.48 757.625 1082.79 757.37 1084.2 757.37C1085.67 757.37 1086.88 757.97 1087.84 759.17C1088.8 760.37 1089.28 761.855 1089.28 763.625V773.21C1089.28 773.81 1089.49 774.215 1089.91 774.425C1090.33 774.605 1090.77 774.77 1091.22 774.92C1091.46 775.01 1091.68 775.115 1091.89 775.235C1092.13 775.325 1092.25 775.49 1092.25 775.73C1092.25 775.91 1092.15 776.015 1091.94 776.045C1091.73 776.105 1091.53 776.135 1091.35 776.135C1090.75 776.135 1090.29 776.105 1089.96 776.045C1089.63 776.015 1089.31 775.985 1089.01 775.955C1088.71 775.925 1088.29 775.91 1087.75 775.91C1087.24 775.91 1086.82 775.925 1086.49 775.955C1086.16 775.985 1085.82 776.015 1085.46 776.045C1085.13 776.105 1084.66 776.135 1084.06 776.135C1083.91 776.135 1083.72 776.105 1083.48 776.045C1083.27 776.015 1083.16 775.91 1083.16 775.73C1083.16 775.49 1083.27 775.325 1083.48 775.235C1083.72 775.115 1083.96 775.01 1084.2 774.92C1084.65 774.77 1085.08 774.605 1085.5 774.425C1085.92 774.215 1086.13 773.81 1086.13 773.21V763.76C1086.13 762.44 1085.76 761.42 1085.01 760.7C1084.29 759.95 1083.31 759.56 1082.08 759.53C1081 759.53 1080.06 759.71 1079.25 760.07C1078.44 760.4 1077.72 760.82 1077.09 761.33C1076.97 761.45 1076.88 761.615 1076.82 761.825C1076.76 762.005 1076.73 762.185 1076.73 762.365V773.21C1076.73 773.81 1076.94 774.215 1077.36 774.425C1077.78 774.635 1078.21 774.8 1078.66 774.92C1079.35 775.1 1079.7 775.34 1079.7 775.64C1079.7 775.82 1079.62 775.94 1079.47 776C1079.32 776.09 1079.1 776.135 1078.8 776.135C1078.2 776.135 1077.72 776.105 1077.36 776.045C1077.03 776.015 1076.71 775.985 1076.41 775.955C1076.11 775.925 1075.69 775.91 1075.15 775.91C1074.64 775.91 1074.22 775.925 1073.89 775.955C1073.59 775.985 1073.26 776.015 1072.9 776.045C1072.57 776.105 1072.11 776.135 1071.51 776.135ZM1098.57 776.63C1098.03 776.63 1097.47 776.42 1096.9 776C1096.36 775.58 1095.9 775.07 1095.51 774.47C1095.15 773.87 1094.97 773.3 1094.97 772.76C1094.97 771.8 1095.22 771.05 1095.73 770.51C1096.24 769.97 1097.05 769.475 1098.16 769.025L1102.75 767.135C1103.35 766.895 1103.7 766.685 1103.79 766.505C1103.91 766.325 1103.98 765.935 1104.01 765.335L1104.1 762.455C1104.13 761.675 1103.91 761 1103.43 760.43C1102.98 759.86 1102.32 759.575 1101.45 759.575C1101 759.575 1100.55 759.65 1100.1 759.8C1099.65 759.95 1099.27 760.145 1098.97 760.385C1098.79 760.505 1098.67 760.685 1098.61 760.925C1098.55 761.165 1098.52 761.42 1098.52 761.69C1098.52 761.81 1098.52 761.945 1098.52 762.095C1098.55 762.245 1098.57 762.38 1098.57 762.5C1098.57 762.65 1098.37 762.86 1097.98 763.13C1097.62 763.37 1097.2 763.595 1096.72 763.805C1096.27 763.985 1095.9 764.075 1095.6 764.075C1095.45 764.075 1095.33 764.045 1095.24 763.985C1095.15 763.895 1095.1 763.79 1095.1 763.67C1095.1 763.19 1095.25 762.68 1095.55 762.14C1095.88 761.57 1096.33 761.045 1096.9 760.565C1097.59 759.935 1098.34 759.38 1099.15 758.9C1099.96 758.42 1100.76 758.045 1101.54 757.775C1102.32 757.505 1103.01 757.37 1103.61 757.37C1104.69 757.37 1105.57 757.76 1106.26 758.54C1106.98 759.29 1107.33 760.235 1107.3 761.375L1107.07 772.175C1107.04 772.805 1107.18 773.315 1107.48 773.705C1107.81 774.095 1108.21 774.29 1108.69 774.29C1109.44 774.29 1110 774.125 1110.36 773.795C1110.51 773.645 1110.63 773.57 1110.72 773.57C1110.87 773.57 1110.99 773.615 1111.08 773.705C1111.17 773.795 1111.21 773.915 1111.21 774.065C1111.21 774.395 1111.05 774.725 1110.72 775.055C1110.24 775.535 1109.71 775.91 1109.14 776.18C1108.6 776.48 1108.09 776.63 1107.61 776.63C1106.23 776.63 1105.14 775.85 1104.33 774.29H1104.19C1103.2 775.1 1102.26 775.685 1101.36 776.045C1100.46 776.435 1099.53 776.63 1098.57 776.63ZM1100.68 774.47C1101.28 774.47 1101.79 774.38 1102.21 774.2C1102.63 773.99 1103.01 773.72 1103.34 773.39C1103.49 773.24 1103.61 773.045 1103.7 772.805C1103.82 772.535 1103.89 772.115 1103.92 771.545L1104.01 769.34C1104.04 769.01 1104.03 768.77 1103.97 768.62C1103.91 768.47 1103.79 768.395 1103.61 768.395C1103.55 768.395 1103.44 768.41 1103.29 768.44C1103.14 768.47 1102.95 768.53 1102.71 768.62C1101.12 769.19 1100.01 769.79 1099.38 770.42C1098.78 771.02 1098.48 771.575 1098.48 772.085C1098.48 772.865 1098.7 773.465 1099.15 773.885C1099.63 774.275 1100.14 774.47 1100.68 774.47ZM1119.78 776.63C1118.31 776.63 1117.16 776.18 1116.32 775.28C1115.51 774.38 1115.1 773.045 1115.1 771.275V760.835C1115.1 760.595 1115.01 760.43 1114.83 760.34C1114.65 760.22 1114.26 760.16 1113.66 760.16H1113.39C1113.24 760.16 1113.11 760.07 1112.99 759.89C1112.9 759.68 1112.85 759.47 1112.85 759.26C1112.85 759.2 1112.9 759.11 1112.99 758.99C1113.08 758.87 1113.14 758.795 1113.17 758.765C1113.77 758.345 1114.31 757.925 1114.79 757.505C1115.3 757.085 1115.75 756.68 1116.14 756.29C1116.56 755.87 1116.9 755.495 1117.17 755.165C1117.32 755.015 1117.44 754.895 1117.53 754.805C1117.65 754.685 1117.79 754.625 1117.94 754.625C1118.09 754.625 1118.22 754.655 1118.34 754.715C1118.49 754.775 1118.55 754.91 1118.52 755.12L1118.3 757.145C1118.27 757.475 1118.34 757.7 1118.52 757.82C1118.7 757.94 1118.99 758 1119.38 758H1124.51C1124.63 758 1124.73 758.105 1124.82 758.315C1124.91 758.495 1124.96 758.72 1124.96 758.99C1124.96 759.26 1124.91 759.53 1124.82 759.8C1124.73 760.04 1124.63 760.16 1124.51 760.16H1120.05C1119.3 760.16 1118.81 760.22 1118.57 760.34C1118.36 760.46 1118.25 760.82 1118.25 761.42V770.285C1118.25 771.485 1118.51 772.43 1119.02 773.12C1119.53 773.81 1120.26 774.155 1121.22 774.155C1122.09 774.155 1122.77 774.095 1123.25 773.975C1123.73 773.825 1124.16 773.615 1124.55 773.345C1124.61 773.285 1124.67 773.255 1124.73 773.255C1124.85 773.255 1124.93 773.33 1124.96 773.48C1125.02 773.6 1125.05 773.735 1125.05 773.885C1125.05 774.035 1124.79 774.335 1124.28 774.785C1123.8 775.235 1123.16 775.655 1122.35 776.045C1121.57 776.435 1120.71 776.63 1119.78 776.63ZM1135.01 776.675C1133.36 776.675 1131.92 776.27 1130.69 775.46C1129.46 774.65 1128.5 773.51 1127.81 772.04C1127.12 770.54 1126.78 768.815 1126.78 766.865C1126.78 765.125 1127.17 763.55 1127.95 762.14C1128.76 760.7 1129.82 759.545 1131.14 758.675C1132.46 757.805 1133.9 757.37 1135.46 757.37C1136.66 757.37 1137.73 757.61 1138.66 758.09C1139.59 758.57 1140.31 759.245 1140.82 760.115C1141.36 760.955 1141.63 761.93 1141.63 763.04C1141.63 763.97 1141.18 764.435 1140.28 764.435H1130.78C1130.36 764.435 1130.06 764.555 1129.88 764.795C1129.73 765.005 1129.66 765.44 1129.66 766.1C1129.66 767.54 1129.97 768.86 1130.6 770.06C1131.23 771.23 1132.07 772.175 1133.12 772.895C1134.17 773.585 1135.33 773.93 1136.59 773.93C1137.49 773.93 1138.3 773.765 1139.02 773.435C1139.77 773.075 1140.43 772.565 1141 771.905C1141.12 771.755 1141.21 771.665 1141.27 771.635C1141.33 771.575 1141.4 771.545 1141.49 771.545C1141.73 771.545 1141.85 771.695 1141.85 771.995C1141.85 772.565 1141.58 773.195 1141.04 773.885C1140.59 774.455 1140.05 774.95 1139.42 775.37C1138.79 775.79 1138.1 776.105 1137.35 776.315C1136.6 776.555 1135.82 776.675 1135.01 776.675ZM1130.87 763.04H1134.97C1135.69 763.04 1136.3 763.025 1136.81 762.995C1137.32 762.965 1137.82 762.905 1138.3 762.815C1138.45 762.785 1138.54 762.695 1138.57 762.545C1138.63 762.365 1138.66 762.125 1138.66 761.825C1138.66 760.955 1138.27 760.22 1137.49 759.62C1136.74 758.99 1135.84 758.675 1134.79 758.675C1134.1 758.675 1133.41 758.885 1132.72 759.305C1132.03 759.695 1131.46 760.19 1131.01 760.79C1130.56 761.39 1130.33 761.99 1130.33 762.59C1130.33 762.89 1130.51 763.04 1130.87 763.04ZM1158.59 776.855C1158.53 776.855 1158.42 776.795 1158.27 776.675C1158.15 776.555 1158.09 776.465 1158.09 776.405C1158.09 776.105 1158.12 775.685 1158.18 775.145C1158.27 774.575 1158.32 774.095 1158.32 773.705V773.435C1157.87 774.125 1157.15 774.83 1156.16 775.55C1155.17 776.27 1153.92 776.63 1152.42 776.63C1150.71 776.63 1149.23 776.18 1147.97 775.28C1146.74 774.38 1145.78 773.225 1145.09 771.815C1144.43 770.405 1144.1 768.95 1144.1 767.45C1144.1 765.71 1144.5 764.075 1145.31 762.545C1146.12 761.015 1147.28 759.77 1148.78 758.81C1150.31 757.85 1152.12 757.37 1154.22 757.37C1154.82 757.37 1155.42 757.43 1156.02 757.55C1156.65 757.64 1157.13 757.745 1157.46 757.865C1157.73 757.955 1157.93 758 1158.05 758C1158.26 758 1158.36 757.64 1158.36 756.92V750.53C1158.36 749.3 1158.17 748.475 1157.78 748.055C1157.39 747.635 1156.83 747.365 1156.11 747.245C1155.84 747.185 1155.71 746.99 1155.71 746.66C1155.71 746.39 1155.83 746.21 1156.07 746.12C1157.39 745.79 1158.42 745.475 1159.17 745.175C1159.92 744.875 1160.51 744.635 1160.93 744.455C1161.05 744.395 1161.15 744.365 1161.24 744.365C1161.36 744.335 1161.45 744.32 1161.51 744.32C1161.69 744.32 1161.8 744.41 1161.83 744.59C1161.83 744.77 1161.8 745.085 1161.74 745.535C1161.71 745.955 1161.66 746.585 1161.6 747.425C1161.54 748.265 1161.51 749.36 1161.51 750.71V771.05C1161.51 772.07 1161.59 772.82 1161.74 773.3C1161.89 773.75 1162.13 773.975 1162.46 773.975C1162.61 773.975 1162.86 773.96 1163.22 773.93C1163.61 773.9 1164 773.87 1164.39 773.84C1164.93 773.81 1165.2 773.945 1165.2 774.245C1165.2 774.455 1165.13 774.65 1164.98 774.83C1164.86 774.98 1164.72 775.055 1164.57 775.055C1163.73 775.175 1162.91 775.355 1162.1 775.595C1161.29 775.805 1160.36 776.135 1159.31 776.585C1159.07 776.705 1158.9 776.78 1158.81 776.81C1158.75 776.84 1158.68 776.855 1158.59 776.855ZM1154.04 774.29C1154.82 774.29 1155.59 774.095 1156.34 773.705C1157.09 773.285 1157.75 772.745 1158.32 772.085L1158.36 763.985C1158.36 763.175 1158.12 762.38 1157.64 761.6C1157.19 760.82 1156.55 760.19 1155.71 759.71C1154.9 759.2 1153.94 758.945 1152.83 758.945C1152.14 758.945 1151.36 759.155 1150.49 759.575C1149.62 759.995 1148.87 760.745 1148.24 761.825C1147.61 762.875 1147.29 764.405 1147.29 766.415C1147.29 768.125 1147.55 769.505 1148.06 770.555C1148.57 771.575 1149.18 772.355 1149.9 772.895C1150.65 773.435 1151.4 773.81 1152.15 774.02C1152.93 774.2 1153.56 774.29 1154.04 774.29Z" fill="black"/>
</g>
<defs>
<clipPath id="clip0_0_1">
<rect width="1559" height="1081" fill="white"/>
</clipPath>
</defs>
</svg>
